<svg width="60" height="60" viewBox="0 0 60 60" fill="none" xmlns="http://www.w3.org/2000/svg">
<g clip-path="url(#clip0_101559_3976)">
<path fill-rule="evenodd" clip-rule="evenodd" d="M36.9898 6.10352e-05H27.1656V14.8293C25.6989 14.4537 24.4853 14.3283 22.8921 14.3283C12.6253 14.3283 6 20.7661 6 30.6856C6 40.981 12.246 46.3415 24.245 46.3541C28.2532 46.3541 31.9577 45.9796 36.9898 45.0277V6.10352e-05ZM24.1972 22.4428C25.4111 22.4428 26.3593 22.568 27.5099 22.9438V38.5634C26.1065 38.7513 25.2214 38.8125 24.1342 38.8125C19.102 38.8125 16.3582 35.957 16.3582 30.7854C16.3582 25.4737 19.2283 22.4428 24.1972 22.4428Z" fill="black"/>
<path d="M53.0563 38.0819V15.5374H43.2446V34.7252C43.2446 43.1919 42.8021 46.4109 41.3988 49.1901C40.0585 51.9079 37.9597 53.6888 33.6229 55.7042L42.739 60.0001C47.0758 57.8447 49.1746 55.8932 50.7678 52.7985C52.4747 49.5795 53.0563 45.8459 53.0563 38.0819Z" fill="black"/>
<path d="M52.0788 6.10352e-05H42.2546V9.9823H52.0788V6.10352e-05Z" fill="black"/>
</g>
<defs>
<clipPath id="clip0_101559_3976">
<rect width="60" height="60" fill="white"/>
</clipPath>
</defs>
</svg>
