<svg width="60" height="60" viewBox="0 0 60 60" fill="none" xmlns="http://www.w3.org/2000/svg">
<mask id="mask0_101559_3967" style="mask-type:luminance" maskUnits="userSpaceOnUse" x="0" y="0" width="60" height="60">
<path d="M60 0H0V60H60V0Z" fill="white"/>
</mask>
<g mask="url(#mask0_101559_3967)">
<path fill-rule="evenodd" clip-rule="evenodd" d="M6.52144 15.6517H29.9995V13.0429H15.6517V6.52144C15.6517 6.52144 15.6517 0 29.9995 0C44.3473 0 44.3473 6.52144 44.3473 6.52144C44.3473 6.52144 44.4552 18.1356 44.4012 22.1107C44.3473 26.0868 41.7385 28.6945 37.8174 28.6945H22.1742C16.9566 28.6945 13.0439 32.6072 13.0439 37.8248V44.3462H6.5225C6.5225 44.3462 0 44.3473 0 29.9995C0 15.6517 6.52144 15.6517 6.52144 15.6517ZM24.7819 6.5225C24.7819 7.96289 23.6135 9.13129 22.1731 9.13129C20.7327 9.13129 19.5643 7.96289 19.5643 6.5225C19.5643 5.08211 20.7327 3.91371 22.1731 3.91371C23.6135 3.91371 24.7819 5.08211 24.7819 6.5225Z" fill="black"/>
<path fill-rule="evenodd" clip-rule="evenodd" d="M53.4792 44.3473H30.0011V46.9561H44.3489V53.4775C44.3489 53.4775 44.3489 59.999 30.0011 59.999C15.6533 59.999 15.6533 53.4775 15.6533 53.4775V37.8258C15.6533 33.9121 18.2621 31.3044 22.1748 31.3044H37.8275C43.0451 31.3044 46.9577 27.3918 46.9577 22.1742V15.6527H53.4792C53.4792 15.6527 60.0006 15.6527 60.0006 30.0005C60.0006 44.3483 53.4792 44.3483 53.4792 44.3483V44.3473ZM40.4342 53.4786C40.4342 54.919 39.2658 56.0874 37.8254 56.0874C36.385 56.0874 35.2166 54.919 35.2166 53.4786C35.2166 52.0382 36.385 50.8698 37.8254 50.8698C39.2658 50.8698 40.4342 52.0382 40.4342 53.4786Z" fill="black"/>
</g>
</svg>
