<svg width="70" height="75" viewBox="0 0 70 75" fill="none" xmlns="http://www.w3.org/2000/svg">
<path d="M26.0176 68.6146C21.0249 67.1931 16.634 64.5758 12.8004 60.9206C11.5968 61.3493 10.3709 61.778 9.1227 62.1841C8.54319 62.3646 7.96368 62.2969 7.36189 62.0713C6.29202 61.6652 5.64565 60.8755 5.17758 59.9052C4.53121 58.6191 3.70652 57.4458 3.06015 56.1597C2.48064 54.9639 1.63366 53.926 1.14331 52.685C0.898134 52.0758 0.251759 51.6697 0.251759 50.9025C-0.32775 49.9549 0.22947 49.12 0.563802 48.2852C0.652958 48.0596 0.764402 47.7662 0.965001 47.676C1.7674 47.315 2.1686 46.5027 2.83726 46.0063C3.1493 45.7807 3.48364 45.5325 3.84026 45.2617C3.32761 42.667 2.88184 40.0722 2.88184 37.4097C2.88184 34.7699 3.3499 32.2202 3.84026 29.6931C2.97099 28.8809 2.1686 28.0912 1.32162 27.3466C0.452358 26.5794 -0.060284 25.6318 0.05116 24.639C0.118026 24.0975 0.274048 23.5108 0.541514 23.0596C1.3662 21.7283 2.12402 20.3294 2.92642 18.9756C3.57279 17.8926 4.13001 16.7644 4.84325 15.704C5.22216 15.1625 5.44505 14.5307 5.82396 13.9666C6.55949 12.9061 8.03055 12.3872 9.23415 12.7482C10.304 13.0641 11.307 13.5379 12.3992 13.741C12.5106 13.7635 12.5998 13.9215 12.7112 14.0343C16.5672 10.4016 20.9581 7.80686 25.9953 6.29513C26.1959 5.68592 26.2405 5.03159 26.4857 4.39982C26.664 3.92599 26.6194 3.33935 26.7086 2.8204C26.9537 1.46661 27.7784 0.676895 28.9597 0.270758C29.3832 0.135379 29.8067 0 30.3194 0C33.4398 0.0451264 36.5602 0.0451264 39.6807 0C40.5722 0 41.33 0.361011 42.0433 0.767148C42.6896 1.1056 43.0463 1.82762 43.2246 2.50451C43.5366 3.74549 43.7149 5.00903 43.9601 6.31769C48.9751 7.76173 53.366 10.3565 57.1997 14.0117C58.4032 13.583 59.6291 13.1543 60.8773 12.7482C61.4568 12.5677 62.0363 12.6354 62.6381 12.861C63.708 13.2671 64.3544 14.0569 64.8224 15.0271C65.4688 16.3132 66.2935 17.4865 66.9399 18.7726C67.5194 19.9684 68.3663 21.0063 68.8567 22.2473C69.1019 22.8565 69.7482 23.2626 69.7482 24.0298C70.3278 24.9774 69.7705 25.8123 69.4362 26.6471C69.347 26.8727 69.2356 27.1661 69.035 27.2563C68.2326 27.6173 67.8314 28.4296 67.1627 28.926C66.8507 29.1516 66.5164 29.3998 66.1597 29.6706C66.6724 32.2653 67.1182 34.8601 67.1182 37.5226C67.1182 40.1625 66.717 42.7121 66.1597 45.2392C67.029 46.0514 67.8314 46.8412 68.6784 47.5857C69.5476 48.3529 70.0603 49.3005 69.9488 50.2933C69.882 50.8348 69.7482 51.4215 69.4585 51.8727C68.6561 53.1814 67.8983 54.5352 67.1182 55.8664C66.1375 57.5135 65.3351 59.296 64.1983 60.8529C63.9977 61.7103 63.1953 61.778 62.6158 62.0939C61.9917 62.4323 61.3677 62.3421 60.6767 62.139C59.6514 61.8457 58.6707 61.3267 57.6008 61.1913C57.4894 61.1688 57.4003 61.0108 57.2888 60.898C53.4328 64.5758 49.0642 67.1931 43.9601 68.6597C43.7149 69.8782 43.492 71.1417 43.2246 72.3827C42.9571 73.6011 42.1547 74.3682 41.018 74.7292C40.5945 74.8646 40.1487 75 39.6584 75C36.5379 74.9549 33.4175 74.9549 30.2971 75C29.4055 75 28.6477 74.639 27.9345 74.2329C27.2881 73.8944 26.9092 73.1724 26.7754 72.4955C26.5303 71.1643 26.2851 69.9233 26.0176 68.6146ZM27.4664 48.7365C27.9122 48.4883 28.4248 48.3303 28.4471 47.7888C28.4917 46.9765 28.6031 46.1417 28.4248 45.3745C28.1128 44.0659 27.5555 42.8023 27.2212 41.4937C26.9983 40.6588 26.508 39.8691 26.5303 38.9666C25.817 37.1841 25.3712 35.3114 24.7694 33.5063C24.2791 32.0171 23.9225 30.4829 23.3875 29.0162C23.0978 28.204 23.0309 27.3014 22.496 26.5794C22.4514 26.5117 22.4291 26.4666 22.4291 26.4666C21.8273 26.0605 21.2032 26.1958 20.6683 26.1958C20.3563 26.4892 20.0888 26.7374 19.8436 26.963C19.8213 27.685 19.3087 28.2491 19.3978 28.9486C18.6177 30.7085 18.2834 32.6038 17.637 34.4088C17.3027 35.3339 17.1021 36.2816 16.8346 37.2292C16.5895 38.1769 16.0545 39.0343 16.0545 40.0496C15.2075 41.9675 14.7841 44.0208 14.16 46.0289C14.0039 46.5253 13.9148 46.9991 14.2268 47.4729C14.316 47.6083 14.2714 47.8114 14.2714 47.7888C14.628 48.1724 14.8955 48.4431 15.1184 48.7139C15.5419 48.7139 15.9877 48.7139 16.4557 48.7139C16.7678 48.3078 17.0798 47.9242 17.3696 47.5406C17.3027 46.2545 17.5702 45.3971 18.1497 44.0208C20.334 44.0208 22.5183 44.0208 24.7026 44.0208C24.8809 44.7428 24.97 45.4422 25.2152 46.0966C25.3267 46.3673 25.4381 46.6381 25.3935 46.9088C25.3267 47.7437 25.5941 48.398 26.5303 48.7139C26.7531 48.7365 27.0875 48.7365 27.4664 48.7365ZM32.682 48.7365C33.2838 48.6913 33.9747 48.8718 34.4651 48.3755C34.6434 48.1498 34.7994 47.9242 35.0223 47.6083C35.0223 45.352 35.0223 42.9829 35.0223 40.6137C36.6494 40.6137 38.2542 40.546 39.8367 40.6363C40.7951 40.6814 41.5752 40.3881 42.333 39.9143C42.6896 39.6886 43.0017 39.3502 43.3137 39.0343C44.1384 38.222 44.5396 37.2292 44.5619 36.056C44.5619 34.2058 44.5619 32.3782 44.5619 30.528C44.5619 30.2572 44.495 29.9639 44.4282 29.6931C44.183 28.7229 43.6703 28.0009 42.9794 27.3691C42.177 26.6245 41.2409 26.1733 40.1264 26.1733C37.6301 26.1733 35.156 26.1733 32.6374 26.1733C32.3922 26.444 32.147 26.7148 31.8573 26.9856C31.8573 33.935 31.8573 40.9296 31.8573 47.9468C32.147 48.1949 32.4145 48.4657 32.682 48.7365ZM48.7299 48.7365C50.2678 48.7365 51.828 48.7365 53.366 48.7365C53.6334 48.4657 53.9009 48.1949 54.1684 47.9468C54.1684 47.5181 54.1684 47.1119 54.1684 46.6832C54.1684 46.6381 54.1684 46.6155 54.1684 46.593C53.834 45.9612 53.3214 45.5776 52.6527 45.5099C52.6527 40.1173 52.6527 34.7473 52.6527 29.4901C53.1431 29.2419 53.5666 29.0162 54.0569 28.7455C54.1238 28.1588 54.1684 27.5496 54.213 27.1209C53.8563 26.7148 53.6112 26.4215 53.4106 26.1958C51.8058 26.1958 50.2455 26.1958 48.8636 26.1958C48.4847 26.5343 48.2173 26.7825 47.8829 27.0984C47.9498 27.6399 48.039 28.2491 48.1058 28.7681C48.6407 29.0388 49.0642 29.2644 49.4431 29.4675C49.4431 34.8375 49.4431 40.2076 49.4431 45.5325C49.2203 45.5776 48.9751 45.5325 48.8859 45.6453C48.5739 45.9612 48.039 46.0514 47.9275 46.5704C47.9275 47.0217 47.9275 47.4729 47.9275 47.9242C48.195 48.1949 48.4624 48.4657 48.7299 48.7365Z" fill="black"/>
<path d="M23.5213 40.5683C22.2063 40.6134 20.8243 40.636 19.4424 40.6811C19.3979 40.6811 19.331 40.7714 19.1973 40.8842C19.2196 39.4853 19.9997 38.3571 20.0888 37.071C20.7575 35.9428 20.8243 34.6116 21.2701 33.3481C21.4039 33.4835 21.6045 33.6188 21.6045 33.7317C21.6267 34.7019 22.184 35.5367 22.3623 36.4618C22.496 37.0936 22.8526 37.7028 22.9418 38.3345C23.0309 39.1468 23.5659 39.756 23.5213 40.5683Z" fill="black"/>
<path d="M41.4631 36.1917C41.3071 36.4399 41.1734 36.6881 40.9951 36.9138C40.683 37.2748 40.2818 37.4778 39.7692 37.4553C38.209 37.4327 36.6487 37.4553 35.0439 37.4553C35.0439 34.7703 35.0439 32.0852 35.0439 29.3325C36.671 29.3325 38.3427 29.31 39.9921 29.3325C40.7722 29.3551 41.4408 30.1674 41.4631 31.0248C41.4631 32.4463 41.4631 33.8677 41.4631 35.2892C41.4631 35.6051 41.4631 35.8984 41.4631 36.1917Z" fill="black"/>
</svg>
