<svg width="50" height="39" viewBox="0 0 50 39" fill="none" xmlns="http://www.w3.org/2000/svg">
<path d="M5.19154 16.148C4.33354 16.148 3.55621 16.0014 2.85954 15.708C2.16287 15.4074 1.56887 15.004 1.07754 14.498C0.593539 13.9847 0.234206 13.4127 -0.000460893 12.782L1.48454 12.254C1.81454 12.98 2.30587 13.5667 2.95854 14.014C3.61121 14.4614 4.37021 14.685 5.23554 14.685C6.21087 14.685 6.99187 14.443 7.57854 13.959C8.17254 13.475 8.46954 12.771 8.46954 11.847C8.46954 11.2237 8.30087 10.692 7.96354 10.252C7.62621 9.8047 7.18621 9.4307 6.64354 9.13003C6.10087 8.82203 5.52154 8.55437 4.90554 8.32703C4.37754 8.12903 3.84954 7.90903 3.32154 7.66703C2.80087 7.4177 2.32421 7.12803 1.89154 6.79803C1.46621 6.4607 1.12521 6.0537 0.868539 5.57703C0.611872 5.10037 0.483539 4.5357 0.483539 3.88303C0.483539 3.20837 0.659539 2.59603 1.01154 2.04603C1.37087 1.4887 1.88787 1.04503 2.56254 0.715032C3.23721 0.385033 4.05487 0.220033 5.01554 0.220033C5.77087 0.220033 6.44554 0.3337 7.03954 0.561033C7.63354 0.788366 8.12854 1.1037 8.52454 1.50703C8.92054 1.91037 9.19921 2.37237 9.36054 2.89303L7.91954 3.37703C7.71421 2.87103 7.35487 2.46037 6.84154 2.14503C6.33554 1.82237 5.69021 1.66103 4.90554 1.66103C4.02554 1.66103 3.33254 1.8627 2.82654 2.26603C2.32787 2.66203 2.07854 3.2047 2.07854 3.89403C2.07854 4.42937 2.24354 4.8767 2.57354 5.23603C2.90354 5.59537 3.33254 5.90337 3.86054 6.16003C4.39587 6.4167 4.96054 6.66237 5.55454 6.89703C6.07521 7.09503 6.59954 7.32603 7.12754 7.59003C7.66287 7.85403 8.15054 8.1767 8.59054 8.55803C9.03054 8.93203 9.38621 9.3867 9.65754 9.92203C9.92887 10.45 10.0645 11.0844 10.0645 11.825C10.0645 12.749 9.85187 13.5337 9.42654 14.179C9.00854 14.817 8.43287 15.3047 7.69954 15.642C6.96621 15.9794 6.13021 16.148 5.19154 16.148ZM16.4378 16.148C15.5138 16.148 14.7182 15.9134 14.0508 15.444C13.3835 14.9674 12.8702 14.2927 12.5108 13.42C12.1588 12.54 11.9828 11.4914 11.9828 10.274C11.9828 9.04937 12.1662 7.99703 12.5328 7.11703C12.8995 6.23703 13.4238 5.56237 14.1058 5.09303C14.7878 4.61637 15.6018 4.37803 16.5478 4.37803C17.4498 4.37803 18.2198 4.59803 18.8578 5.03803C19.5032 5.4707 19.9725 6.09403 20.2658 6.90803L18.8028 7.44703C18.6122 6.92637 18.3225 6.5267 17.9338 6.24803C17.5452 5.96937 17.0905 5.83003 16.5698 5.83003C15.5945 5.83003 14.8502 6.2077 14.3368 6.96303C13.8308 7.71837 13.5778 8.82203 13.5778 10.274C13.5778 11.6674 13.8308 12.7527 14.3368 13.53C14.8428 14.3 15.5542 14.685 16.4708 14.685C17.0722 14.685 17.5892 14.5237 18.0218 14.201C18.4545 13.8784 18.7552 13.4384 18.9238 12.881L20.3758 13.365C20.1192 14.245 19.6425 14.9307 18.9458 15.422C18.2565 15.906 17.4205 16.148 16.4378 16.148ZM22.9969 15.884V4.64203H24.5369V6.42403C24.8156 5.76403 25.2006 5.25803 25.6919 4.90603C26.1906 4.55403 26.7663 4.37803 27.4189 4.37803C28.0936 4.37803 28.6436 4.5577 29.0689 4.91703L28.8379 6.38003C28.6179 6.22603 28.3759 6.11237 28.1119 6.03903C27.8553 5.9657 27.5766 5.92903 27.2759 5.92903C26.7333 5.92903 26.2566 6.08303 25.8459 6.39103C25.4353 6.69903 25.1126 7.12803 24.8779 7.67803C24.6506 8.2207 24.5369 8.85503 24.5369 9.58103V15.884H22.9969ZM34.4991 16.148C33.0178 16.148 31.8481 15.6237 30.9901 14.575C30.1321 13.519 29.7031 12.0854 29.7031 10.274C29.7031 9.06403 29.8975 8.01903 30.2861 7.13903C30.6748 6.25903 31.2285 5.5807 31.9471 5.10403C32.6658 4.62003 33.5165 4.37803 34.4991 4.37803C35.4891 4.37803 36.3435 4.61637 37.0621 5.09303C37.7808 5.56237 38.3308 6.23703 38.7121 7.11703C39.1008 7.99703 39.2951 9.04203 39.2951 10.252C39.2951 11.462 39.1008 12.5107 38.7121 13.398C38.3235 14.278 37.7698 14.9564 37.0511 15.433C36.3325 15.9097 35.4818 16.148 34.4991 16.148ZM34.4991 14.696C35.5111 14.696 36.2995 14.3037 36.8641 13.519C37.4361 12.7344 37.7221 11.6454 37.7221 10.252C37.7221 8.85137 37.4361 7.76237 36.8641 6.98503C36.2995 6.2077 35.5111 5.81903 34.4991 5.81903C33.4725 5.81903 32.6768 6.2077 32.1121 6.98503C31.5548 7.75503 31.2761 8.85137 31.2761 10.274C31.2761 11.6747 31.5585 12.7637 32.1231 13.541C32.6878 14.311 33.4798 14.696 34.4991 14.696ZM42.0618 15.884V0.737032L43.6018 3.18289e-05V15.884H42.0618ZM47.1407 15.884V0.737032L48.6807 3.18289e-05V15.884H47.1407ZM0.846539 37.884V22.484H4.81754C6.12287 22.484 7.22654 22.704 8.12854 23.144C9.03054 23.584 9.75287 24.1744 10.2955 24.915C10.8455 25.6484 11.2415 26.4734 11.4835 27.39C11.7329 28.2994 11.8575 29.2307 11.8575 30.184C11.8575 31.0714 11.7439 31.966 11.5165 32.868C11.2892 33.77 10.9079 34.6024 10.3725 35.365C9.83721 36.1204 9.10754 36.729 8.18354 37.191C7.26687 37.653 6.11554 37.884 4.72954 37.884H0.846539ZM2.38654 36.432H4.89454C5.92854 36.432 6.79021 36.2487 7.47954 35.882C8.16887 35.508 8.71887 35.0167 9.12954 34.408C9.54021 33.792 9.82987 33.1174 9.99854 32.384C10.1745 31.6434 10.2625 30.91 10.2625 30.184C10.2625 29.3994 10.1672 28.6367 9.97654 27.896C9.79321 27.148 9.49254 26.477 9.07454 25.883C8.66387 25.2817 8.12854 24.805 7.46854 24.453C6.81587 24.101 6.02021 23.925 5.08154 23.925H2.38654V36.432ZM18.7984 38.148C17.317 38.148 16.1474 37.6237 15.2894 36.575C14.4314 35.519 14.0024 34.0854 14.0024 32.274C14.0024 31.064 14.1967 30.019 14.5854 29.139C14.974 28.259 15.5277 27.5807 16.2464 27.104C16.965 26.62 17.8157 26.378 18.7984 26.378C19.7884 26.378 20.6427 26.6164 21.3614 27.093C22.08 27.5624 22.63 28.237 23.0114 29.117C23.4 29.997 23.5944 31.042 23.5944 32.252C23.5944 33.462 23.4 34.5107 23.0114 35.398C22.6227 36.278 22.069 36.9564 21.3504 37.433C20.6317 37.9097 19.781 38.148 18.7984 38.148ZM18.7984 36.696C19.8104 36.696 20.5987 36.3037 21.1634 35.519C21.7354 34.7344 22.0214 33.6454 22.0214 32.252C22.0214 30.8514 21.7354 29.7624 21.1634 28.985C20.5987 28.2077 19.8104 27.819 18.7984 27.819C17.7717 27.819 16.976 28.2077 16.4114 28.985C15.854 29.755 15.5754 30.8514 15.5754 32.274C15.5754 33.6747 15.8577 34.7637 16.4224 35.541C16.987 36.311 17.779 36.696 18.7984 36.696ZM27.9172 37.884L25.0352 26.642H26.5642L28.4232 34.562C28.4745 34.76 28.5185 34.958 28.5552 35.156C28.5992 35.3467 28.6395 35.5374 28.6762 35.728C28.7202 35.5374 28.7679 35.343 28.8192 35.145C28.8705 34.947 28.9219 34.7527 28.9732 34.562L31.2832 26.642H32.5262L34.8252 34.562C34.8839 34.7674 34.9389 34.969 34.9902 35.167C35.0489 35.365 35.1002 35.563 35.1442 35.761C35.1809 35.563 35.2175 35.365 35.2542 35.167C35.2982 34.969 35.3459 34.7674 35.3972 34.562L37.2452 26.642H38.7632L35.8922 37.884H34.5612L32.3172 30.679C32.2512 30.4517 32.1779 30.206 32.0972 29.942C32.0239 29.678 31.9542 29.4287 31.8882 29.194C31.8295 29.4287 31.7635 29.678 31.6902 29.942C31.6169 30.206 31.5435 30.4517 31.4702 30.679L29.2482 37.884H27.9172ZM41.1383 37.884V26.642H42.6783V28.083C42.9937 27.533 43.4117 27.1114 43.9323 26.818C44.4603 26.5247 45.058 26.378 45.7253 26.378C47.038 26.378 48.0133 26.785 48.6513 27.599C49.2893 28.4057 49.6083 29.634 49.6083 31.284V37.884H48.0683V31.009C48.0683 29.9604 47.8483 29.1647 47.4083 28.622C46.9683 28.072 46.3303 27.797 45.4943 27.797C44.5703 27.797 43.87 28.0794 43.3933 28.644C42.9167 29.2087 42.6783 30.041 42.6783 31.141V37.884H41.1383Z" fill="black"/>
</svg>
