<svg width="60" height="60" viewBox="0 0 60 60" fill="none" xmlns="http://www.w3.org/2000/svg">
<path d="M59.4169 24.3418C59.2496 24.2021 57.7468 23.058 54.5189 23.058C53.6838 23.058 52.8213 23.1416 51.9862 23.2813C51.3745 19.0099 47.8397 16.944 47.701 16.8318L46.8385 16.3291L46.2818 17.1387C45.5865 18.2278 45.0573 19.4565 44.7514 20.7128C44.1672 23.1416 44.5292 25.4308 45.7537 27.3856C44.2783 28.2227 41.8854 28.4185 41.3848 28.4461H1.86848C0.838713 28.4461 0.00368188 29.2832 0.00368188 30.3172C-0.0524102 33.779 0.532853 37.2409 1.72878 40.508C3.09192 44.082 5.12394 46.7342 7.7391 48.3535C10.6887 50.1685 15.5031 51.2015 20.9292 51.2015C23.3782 51.2015 25.8272 50.9781 28.2476 50.5315C31.6142 49.9177 34.8432 48.745 37.8203 47.0422C40.2693 45.6187 42.4675 43.8036 44.3323 41.6817C47.4767 38.1362 49.3414 34.1717 50.7046 30.6538H51.2613C54.684 30.6538 56.7996 29.2853 57.968 28.1127C58.7469 27.3867 59.3311 26.4934 59.7492 25.488L60 24.762L59.4158 24.3429L59.4169 24.3418Z" fill="black"/>
<path d="M5.56683 27.3232H10.8543C11.1051 27.3232 11.3274 27.1274 11.3274 26.848V22.0939C11.3274 21.842 11.1326 21.6187 10.8543 21.6187H5.56683C5.316 21.6187 5.09375 21.8145 5.09375 22.0939V26.848C5.12127 27.1274 5.316 27.3232 5.56683 27.3232ZM12.8567 27.3232H18.1442C18.395 27.3232 18.6172 27.1274 18.6172 26.848V22.0939C18.6172 21.842 18.4225 21.6187 18.1442 21.6187H12.8567C12.6059 21.6187 12.3836 21.8145 12.3836 22.0939V26.848C12.4111 27.1274 12.6059 27.3232 12.8567 27.3232ZM20.2873 27.3232H25.5748C25.8256 27.3232 26.0479 27.1274 26.0479 26.848V22.0939C26.0479 21.842 25.8531 21.6187 25.5748 21.6187H20.2873C20.0365 21.6187 19.8142 21.8145 19.8142 22.0939V26.848C19.8142 27.1274 20.009 27.3232 20.2873 27.3232ZM27.6057 27.3232H32.8932C33.144 27.3232 33.3663 27.1274 33.3663 26.848V22.0939C33.3663 21.842 33.1716 21.6187 32.8932 21.6187H27.6057C27.3549 21.6187 27.1327 21.8145 27.1327 22.0939V26.848C27.1327 27.1274 27.3549 27.3232 27.6057 27.3232ZM12.8567 20.5286H18.1442C18.395 20.5286 18.6172 20.3053 18.6172 20.0535V15.2994C18.6172 15.0475 18.4225 14.8242 18.1442 14.8242H12.8567C12.6059 14.8242 12.3836 15.02 12.3836 15.2994V20.0535C12.4111 20.3053 12.6059 20.5286 12.8567 20.5286ZM20.2873 20.5286H25.5748C25.8256 20.5286 26.0479 20.3053 26.0479 20.0535V15.2994C26.0479 15.0475 25.8531 14.8242 25.5748 14.8242H20.2873C20.0365 14.8242 19.8142 15.02 19.8142 15.2994V20.0535C19.8142 20.3053 20.009 20.5286 20.2873 20.5286ZM27.6057 20.5286H32.8932C33.144 20.5286 33.3663 20.3053 33.3663 20.0535V15.2994C33.3663 15.0475 33.144 14.8242 32.8932 14.8242H27.6057C27.3549 14.8242 27.1327 15.02 27.1327 15.2994V20.0535C27.1327 20.3053 27.3549 20.5286 27.6057 20.5286ZM27.6057 13.7045H32.8932C33.144 13.7045 33.3663 13.5087 33.3663 13.2293V8.4752C33.3663 8.22331 33.144 8 32.8932 8H27.6057C27.3549 8 27.1327 8.19579 27.1327 8.4752V13.2293C27.1327 13.4812 27.3549 13.7045 27.6057 13.7045ZM34.9792 27.3232H40.2667C40.5175 27.3232 40.7397 27.1274 40.7397 26.848V22.0939C40.7397 21.842 40.545 21.6187 40.2667 21.6187H34.9792C34.7284 21.6187 34.5061 21.8145 34.5061 22.0939V26.848C34.5336 27.1274 34.7284 27.3232 34.9792 27.3232Z" fill="black"/>
</svg>
