<svg width="60" height="60" viewBox="0 0 60 60" fill="none" xmlns="http://www.w3.org/2000/svg">
<g clip-path="url(#clip0_101559_3978)">
<path d="M54.1891 49.182C53.9992 48.837 53.793 48.4848 53.5247 48.2037C52.6504 47.2874 52.2233 46.1868 51.9824 44.9658C51.725 43.6498 51.2633 42.4306 49.8104 41.8593C51.0077 37.9114 50.2722 34.3047 48.5985 30.7894C47.1182 27.6792 44.9389 25.0619 42.8089 22.4081C40.8085 19.9148 39.832 17.1569 39.9342 13.8989C40.009 11.5189 39.8064 9.08952 39.3775 6.74413C38.7661 3.40218 36.9409 0.86697 33.3835 0.20077C31.9197 -0.0748362 30.35 -0.0365069 28.8589 0.133237C25.2449 0.542083 22.7572 2.76518 22.1676 6.34624C21.8044 8.54014 21.746 10.8308 21.9012 13.0539C22.1987 17.3139 21.2934 21.0957 18.5118 24.434C17.1374 26.084 15.9346 27.9019 14.8321 29.7509C12.8481 33.0782 11.3843 36.5936 11.7129 40.6054C11.7256 40.7769 11.7202 41.0069 11.6216 41.1219C10.532 42.3922 9.71609 43.8816 7.87628 44.4164C5.69516 45.0497 5.04538 46.3621 5.42868 48.6217C5.64223 49.892 5.66413 51.1094 5.26806 52.3871C4.52155 54.7854 5.32464 55.99 7.79779 56.5084C8.09348 56.5704 8.39464 56.6179 8.6958 56.6526C11.1178 56.9172 13.4924 57.2932 15.7119 58.4394C16.6318 58.914 17.7269 59.1367 18.7673 59.2681C20.8736 59.5327 22.7718 59.1111 24.0221 57.1545C24.1097 57.0176 24.2703 56.8497 24.4126 56.8351C26.8201 56.5777 29.2275 56.2565 31.6459 56.1415C32.9656 56.0776 34.2998 56.4116 35.6322 56.4901C36.1615 56.5211 36.4116 56.6708 36.6379 57.1691C37.5614 59.2152 39.352 60.2026 41.5751 59.9653C43.654 59.7408 45.2985 58.6731 46.6382 57.1581C47.7935 55.8513 49.1643 54.8985 50.7066 54.1393C51.6046 53.6957 52.5135 53.2559 53.3495 52.7119C54.7567 51.8012 55.0013 50.6549 54.1891 49.182ZM29.4447 11.2524C29.5451 10.7541 29.7185 10.2504 29.9594 9.805C31.0893 7.71514 33.5533 7.67499 34.7762 9.70462C35.7508 11.3236 35.6249 13.397 34.413 14.8681C33.9311 14.6692 33.4894 14.4867 33.1864 14.3607C33.2612 13.4791 33.4219 12.7071 33.3653 11.9496C33.316 11.2743 32.9783 10.5844 32.1625 10.5807C31.4014 10.5752 31.1112 11.2305 30.9341 11.8584C30.8209 12.2581 30.8246 12.6907 30.7771 13.1105C29.3444 12.8239 29.1728 12.6103 29.4447 11.2524ZM23.8724 9.28665C24.5222 8.66973 25.3198 8.60584 26.0042 9.17348C27.0227 10.0204 27.3658 11.1812 27.2162 12.4333C27.176 12.7582 26.5846 13.0155 26.1028 13.4262C25.9805 12.6888 25.9604 11.5006 25.0186 11.256C24.3159 11.0735 24.1845 12.1796 24.1754 12.6286C24.1699 12.8914 24.6554 14.4538 24.5222 14.5597C24.5039 14.5743 24.3031 14.7385 24.1097 14.8973C22.6276 13.6544 22.5199 10.5716 23.8724 9.28665ZM23.9344 15.527C24.5149 15.0908 25.0752 14.6254 25.6282 14.1545C26.4386 13.4682 27.3257 12.9918 28.4518 12.9097C29.0852 13.0977 29.7386 13.2346 30.3446 13.4883C31.5985 14.0121 32.8268 14.6016 34.0662 15.1602C35.6851 15.8921 35.895 17.1332 34.5882 18.3506C34.3016 18.6171 33.9731 18.8507 33.6299 19.0369C32.5658 19.61 31.4871 20.1594 30.4085 20.7051C28.6964 21.5721 27.2563 21.3713 25.7962 20.1265C25.1975 19.6173 24.5295 19.192 23.9125 18.7029C22.4779 17.5731 22.4962 16.6075 23.9344 15.527ZM23.3613 56.8314C22.5619 58.2496 21.1638 58.5344 19.1488 58.653C18.3657 58.4358 16.9968 58.266 15.8305 57.6856C13.6257 56.5905 11.3022 56.1689 8.90569 55.9389C8.66294 55.917 8.42384 55.8787 8.18474 55.833C5.85213 55.384 5.30091 54.5901 6.04925 52.3542C6.5092 50.9762 6.33033 49.6639 6.14051 48.3132C5.89228 46.5428 6.35771 45.6539 8.0588 45.1118C9.52627 44.6427 10.5758 43.7703 11.4592 42.5364C12.9558 40.4484 14.6587 40.3845 16.2795 42.3831C17.0753 43.3632 17.632 44.5332 18.3146 45.6082C19.3185 47.1907 20.3224 48.7732 21.3554 50.3374C21.8902 51.1459 22.5108 51.8997 23.0474 52.7083C23.9144 54.0151 24.1608 55.4114 23.3613 56.8314ZM36.8021 51.4982C33.17 53.8746 29.3498 54.7817 25.1446 53.0387C23.6515 52.4181 22.916 51.1678 22.0691 49.9723C22.1421 49.8938 22.1749 49.8245 22.2224 49.8117C23.9764 49.3463 24.493 48.3552 23.511 46.7965C22.7809 45.6374 21.7551 44.6445 20.7677 43.6717C20.1709 43.0822 19.4098 42.6514 18.6979 42.1878C15.8214 40.306 14.8887 38.2016 15.5056 34.8103C15.9911 32.1364 17.3016 29.8257 18.6961 27.557C18.7709 27.5916 18.8439 27.6245 18.917 27.6592C18.561 28.3746 18.2142 29.0956 17.8474 29.8056C16.7669 31.8882 15.9747 34.0547 16.2978 36.4421C16.4237 37.3839 16.8307 38.2873 17.11 39.2091C17.1976 39.1817 17.287 39.1543 17.3747 39.1251C17.5718 37.9698 17.6448 36.7761 17.9934 35.6682C18.5647 33.8503 19.2491 32.0597 20.0084 30.3112C21.3372 27.2467 22.7973 24.2369 23.4416 20.926C23.5493 20.3656 23.6242 19.7998 23.7446 19.0515C24.4126 19.5553 24.9803 19.9422 25.5005 20.3857C27.134 21.782 28.6727 22.0339 30.538 21.0683C32.1935 20.2123 33.807 19.2778 35.4022 18.3962C36.1013 20.3437 36.7656 22.461 37.618 24.4979C38.6602 26.9893 39.905 29.3931 40.9727 31.8736C41.524 33.1512 41.9182 34.5 42.3161 35.8361C42.6209 36.8619 42.5753 36.8746 43.842 37.0243C44.9827 32.8044 43.267 29.5282 40.6971 26.4399C40.8286 26.5075 40.9892 26.5476 41.0859 26.6498C43.7982 29.5227 45.5668 32.7752 45.0977 36.8892C45.043 37.3802 45.2145 37.5682 45.6124 37.7854C46.3553 38.1888 47.1292 38.594 47.7479 39.1561C48.1878 39.554 48.4506 40.1874 48.6769 40.7623C48.7664 40.9941 48.5455 41.3482 48.3831 41.6183C47.6165 39.5577 45.2218 37.9022 42.9695 37.915C41.9511 37.9205 41.3688 38.3768 41.0476 39.3879C40.9691 39.6362 40.8888 39.9866 40.7026 40.0797C38.7715 41.0525 38.4266 42.8613 38.1601 44.734C37.8808 46.7125 37.5888 48.6892 37.2657 50.6604C37.2165 50.9616 37.0412 51.3412 36.8021 51.4982ZM46.1326 41.5599C45.4974 42.4342 44.6159 43.0256 43.5445 43.0475C43.0571 43.0566 42.3033 42.7171 42.1208 42.3265C41.7448 41.5161 41.5422 40.5689 41.5112 39.669C41.4199 37.0444 47.5763 39.5723 46.1326 41.5599ZM52.8786 52.1461C52.1631 52.5988 51.3965 52.9784 50.6299 53.3398C48.9069 54.1539 47.3646 55.1833 46.107 56.6489C45.1032 57.8189 43.8474 58.6658 42.3325 59.0856C39.153 59.9653 36.6123 57.7422 37.0978 54.486C37.1873 53.8855 37.2877 53.2759 37.4848 52.7083C38.3682 50.1585 38.7204 47.5247 38.8993 44.8471C38.9541 44.044 39.1567 43.2172 39.4651 42.4725C39.7134 41.8702 40.2226 41.3774 40.7026 40.7149C41.0549 41.6822 41.221 42.3703 41.5422 42.9781C42.161 44.1517 43.1885 44.6336 44.4406 44.2211C45.3441 43.9254 46.2366 43.4691 47.0032 42.9051C48.3009 41.9524 50.1371 42.3064 50.8234 43.7666C50.8508 43.8214 50.8909 43.8725 50.9037 43.9309C51.3217 46.0116 52.1813 47.8587 53.4973 49.5562C54.3168 50.613 54.0284 51.4197 52.8786 52.1461Z" fill="black"/>
<path d="M34.1664 16.801C32.0382 17.8067 30.2185 19.5936 27.6084 19.3782C25.8581 19.234 24.6206 18.1736 23.54 16.9251C23.5948 16.8466 23.6496 16.7663 23.7061 16.6879C23.9799 16.927 24.2573 17.1624 24.5293 17.4052C26.6119 19.2742 28.2472 19.5041 30.7533 18.2393C31.5107 17.8578 32.2262 17.396 32.9727 16.9945C33.3195 16.8065 33.6973 16.6769 34.0605 16.5218C34.0952 16.6148 34.1317 16.7079 34.1664 16.801Z" fill="black"/>
</g>
<defs>
<clipPath id="clip0_101559_3978">
<rect width="49.6511" height="60" fill="white" transform="translate(5)"/>
</clipPath>
</defs>
</svg>
